<?xml version="1.0" encoding="UTF-8" standalone="no"?>
<svg
   version="1.1"
   viewBox="0 1 24 24"
   id="svg14"
   sodipodi:docname="podcast.svg"
   width="24"
   height="24"
   inkscape:version="1.2 (1:1.2.1+202207142221+cd75a1ee6d)"
   xmlns:inkscape="http://www.inkscape.org/namespaces/inkscape"
   xmlns:sodipodi="http://sodipodi.sourceforge.net/DTD/sodipodi-0.dtd"
   xmlns="http://www.w3.org/2000/svg"
   xmlns:svg="http://www.w3.org/2000/svg">
  <defs
     id="defs18" />
  <sodipodi:namedview
     id="namedview16"
     pagecolor="#ffffff"
     bordercolor="#666666"
     borderopacity="1.0"
     inkscape:showpageshadow="2"
     inkscape:pageopacity="0.0"
     inkscape:pagecheckerboard="0"
     inkscape:deskcolor="#d1d1d1"
     showgrid="true"
     inkscape:zoom="20.225376"
     inkscape:cx="5.4634337"
     inkscape:cy="12.311267"
     inkscape:window-width="1920"
     inkscape:window-height="1043"
     inkscape:window-x="0"
     inkscape:window-y="0"
     inkscape:window-maximized="1"
     inkscape:current-layer="svg14">
    <inkscape:grid
       type="xygrid"
       id="grid247"
       originx="0"
       originy="0" />
    <inkscape:grid
       type="xygrid"
       id="grid409"
       dotted="true"
       spacingx="0.5"
       spacingy="0.5"
       empspacing="10" />
  </sodipodi:namedview>
  <path
     id="path291"
     style="color:#000000;fill:#808080;fill-rule:evenodd;stroke-linejoin:round;-inkscape-stroke:none"
     d="M 12 3.5039062 C 9.6956568 3.5039062 7.3919808 4.3814569 5.6367188 6.1367188 C 2.1261949 9.6472426 2.126195 15.352758 5.6367188 18.863281 L 6.34375 18.15625 C 3.2153742 15.027874 3.2153742 9.9721258 6.34375 6.84375 C 9.4721258 3.7153742 14.527874 3.7153742 17.65625 6.84375 C 20.784626 9.9721258 20.784626 15.027874 17.65625 18.15625 L 18.363281 18.863281 C 21.873806 15.352758 21.873806 9.6472426 18.363281 6.1367188 C 16.60802 4.3814569 14.304343 3.5039063 12 3.5039062 z M 12 5.5039062 C 10.207501 5.5039062 8.4155198 6.1860429 7.0507812 7.5507812 C 4.3213044 10.280258 4.3213045 14.719741 7.0507812 17.449219 L 7.7578125 16.742188 C 5.4104837 14.394859 5.4104837 10.605142 7.7578125 8.2578125 C 10.105142 5.9104837 13.894859 5.9104837 16.242188 8.2578125 C 18.589517 10.605142 18.589517 14.394859 16.242188 16.742188 L 16.949219 17.449219 C 19.678695 14.719741 19.678695 10.280258 16.949219 7.5507812 C 15.58448 6.1860429 13.792499 5.5039063 12 5.5039062 z M 11.960938 7.5039062 C 10.690528 7.5039062 9.4195218 7.9867282 8.453125 8.953125 C 6.5203313 10.885919 6.5203313 14.034003 8.453125 15.966797 L 9.1601562 15.259766 C 7.6095107 13.70912 7.6095106 11.210801 9.1601562 9.6601562 C 10.710801 8.1095107 13.20912 8.1095107 14.759766 9.6601562 C 16.310411 11.210801 16.310411 13.70912 14.759766 15.259766 L 15.466797 15.966797 C 17.39959 14.034003 17.39959 10.885919 15.466797 8.953125 C 14.5004 7.9867282 13.231346 7.5039063 11.960938 7.5039062 z M 12 11 C 11.405641 11 10.883753 11.325568 10.539062 11.785156 C 10.194371 12.244745 10 12.846384 10 13.5 C 10 14.153616 10.194371 14.755255 10.539062 15.214844 C 10.883753 15.674432 11.405641 16 12 16 C 12.594359 16 13.116246 15.674432 13.460938 15.214844 C 13.805628 14.755255 14 14.153616 14 13.5 C 14 12.846384 13.805628 12.244745 13.460938 11.785156 C 13.116246 11.325568 12.594359 11 12 11 z M 12 12 C 12.234067 12 12.461955 12.122451 12.660156 12.386719 C 12.858357 12.650986 13 13.049048 13 13.5 C 13 13.950952 12.858357 14.349014 12.660156 14.613281 C 12.461955 14.877549 12.234067 15 12 15 C 11.765933 15 11.538045 14.877549 11.339844 14.613281 C 11.141643 14.349014 11 13.950952 11 13.5 C 11 13.049048 11.141643 12.650986 11.339844 12.386719 C 11.538045 12.122451 11.765933 12 12 12 z M 12 17 C 9.8309903 17 8 18.524929 8 20.5 A 0.50005 0.50005 0 0 0 8.5 21 L 15.5 21 A 0.50005 0.50005 0 0 0 16 20.5 C 16 18.524929 14.16901 17 12 17 z M 12 18 C 13.465765 18 14.455858 18.907911 14.755859 20 L 9.2441406 20 C 9.5441422 18.907911 10.534235 18 12 18 z " />
</svg>
