<?xml version="1.0" encoding="UTF-8" standalone="no"?>
<svg
   viewBox="0 1 24 24"
   height="24"
   width="24"
   version="1.1"
   id="svg4"
   sodipodi:docname="radio.svg"
   inkscape:version="1.2 (1:1.2.1+202207142221+cd75a1ee6d)"
   xmlns:inkscape="http://www.inkscape.org/namespaces/inkscape"
   xmlns:sodipodi="http://sodipodi.sourceforge.net/DTD/sodipodi-0.dtd"
   xmlns="http://www.w3.org/2000/svg"
   xmlns:svg="http://www.w3.org/2000/svg">
  <defs
     id="defs8" />
  <sodipodi:namedview
     id="namedview6"
     pagecolor="#ffffff"
     bordercolor="#666666"
     borderopacity="1.0"
     inkscape:pageshadow="2"
     inkscape:pageopacity="0.0"
     inkscape:pagecheckerboard="0"
     showgrid="true"
     inkscape:snap-page="true"
     inkscape:zoom="16.963882"
     inkscape:cx="7.398071"
     inkscape:cy="14.088757"
     inkscape:window-width="1920"
     inkscape:window-height="1043"
     inkscape:window-x="0"
     inkscape:window-y="0"
     inkscape:window-maximized="1"
     inkscape:current-layer="svg4"
     inkscape:showpageshadow="2"
     inkscape:deskcolor="#d1d1d1">
    <inkscape:grid
       type="xygrid"
       id="grid6" />
    <inkscape:grid
       type="xygrid"
       id="grid823"
       dotted="true"
       spacingx="0.5"
       spacingy="0.5"
       empspacing="10" />
  </sodipodi:namedview>
  <path
     id="path502"
     style="opacity:1;fill:#808080;fill-rule:evenodd;stroke:none;stroke-linecap:round;stroke-linejoin:round"
     d="M 16.5 15 A 2.5 2.5 0 0 0 14 17.5 A 2.5 2.5 0 0 0 16.5 20 A 2.5 2.5 0 0 0 19 17.5 A 2.5 2.5 0 0 0 16.5 15 z M 16.5 16 A 1.5 1.5 0 0 1 18 17.5 A 1.5 1.5 0 0 1 16.5 19 A 1.5 1.5 0 0 1 15 17.5 A 1.5 1.5 0 0 1 16.5 16 z " />
  <path
     id="path293"
     style="color:#000000;fill:#808080;-inkscape-stroke:none"
     d="m 6,9 c -1.0993481,0 -2,0.9006519 -2,2 v 1 c 0,1.099348 0.9006519,2 2,2 h 12 c 1.099348,0 2,-0.900652 2,-2 v -1 c 0,-1.0993481 -0.900652,-2 -2,-2 z m 0,1 v 1 h 1 v -1 h 1 v 1 h 1 v -1 h 1 v 1 h 1 v -1 h 1 v 1 h 1 v -1 h 1 v 1 h 1 v -1 h 1 v 1 h 1 v -1 h 1 c 0.562646,0 1,0.437354 1,1 v 1 c 0,0.562646 -0.437354,1 -1,1 h -2 v -2 h -1 v 2 h -9 c -0.5626469,0 -1,-0.437354 -1,-1 v -1 c 0,-0.562646 0.4373531,-1 1,-1 z"
     sodipodi:nodetypes="sssssssssccccccccccccccccccccccccssssccccsssc" />
  <path
     id="path1652"
     style="color:#000000;fill:#808080;-inkscape-stroke:none"
     d="M 19.5 1.75 C 19.099036 1.75 18.768315 2.0714857 18.751953 2.46875 L 7.0214844 6.078125 A 1.5 1.25 0 0 0 6.5 6 A 1.5 1.25 0 0 0 5.0234375 7.0449219 C 4.0567691 7.1208578 3.3472675 7.3207032 2.8339844 7.8339844 C 2.0881618 8.5798036 2 9.7262012 2 11.5 L 2 17.5 C 2 19.273798 2.0881627 20.420194 2.8339844 21.166016 C 3.5798068 21.911838 4.7262026 22 6.5 22 L 17.5 22 C 18.165174 22 18.741511 21.988424 19.242188 21.933594 C 19.575971 21.897044 19.876949 21.840974 20.146484 21.757812 C 20.550787 21.633067 20.886333 21.445696 21.166016 21.166016 C 21.445697 20.886333 21.633065 20.550789 21.757812 20.146484 C 21.840982 19.876951 21.897044 19.575971 21.933594 19.242188 C 21.988424 18.741511 22 18.165173 22 17.5 L 22 11.5 C 22 10.834826 21.988424 10.258489 21.933594 9.7578125 C 21.897044 9.4240282 21.840984 9.1230514 21.757812 8.8535156 C 21.633065 8.4492126 21.445697 8.1136666 21.166016 7.8339844 C 20.886333 7.5543021 20.550787 7.3669355 20.146484 7.2421875 C 19.876949 7.1590226 19.575971 7.1029582 19.242188 7.0664062 C 18.741511 7.0115793 18.165174 7 17.5 7 L 7.96875 7 A 1.5 1.25 0 0 0 7.6171875 6.4179688 L 18.900391 2.9453125 L 18.900391 2.9472656 C 19.037719 3.1303788 19.255819 3.25 19.5 3.25 C 19.911252 3.25 20.25 2.9112512 20.25 2.5 C 20.25 2.0887488 19.911252 1.75 19.5 1.75 z M 6.5 8 L 17.5 8 C 18.578863 8 19.316177 8.0631391 19.810547 8.203125 C 19.909417 8.231122 19.999918 8.262628 20.080078 8.296875 C 20.240398 8.3653689 20.364194 8.4462218 20.458984 8.5410156 C 20.790761 8.8727928 20.956028 9.5676011 20.992188 10.892578 C 20.997287 11.081861 21 11.284227 21 11.5 L 21 17.5 C 21 17.715773 20.997387 17.918139 20.992188 18.107422 C 20.956028 19.4324 20.790761 20.127209 20.458984 20.458984 C 20.364194 20.553774 20.240398 20.634635 20.080078 20.703125 C 19.999918 20.737375 19.909417 20.768875 19.810547 20.796875 C 19.316177 20.93686 18.578863 21 17.5 21 L 6.5 21 C 4.7738204 21 3.9201868 20.838159 3.5410156 20.458984 C 3.1618404 20.079812 3 19.226179 3 17.5 L 3 11.5 C 3 9.7738199 3.1618404 8.9201893 3.5410156 8.5410156 C 3.9201868 8.161842 4.7738204 8 6.5 8 z " />
  <path
     style="color:#000000;fill:#808080;-inkscape-stroke:none"
     d="m 16.5,17.25 c 0.141032,0 0.25,0.108968 0.25,0.25 0,0.141032 -0.108968,0.25 -0.25,0.25 -0.141032,0 -0.25,-0.108968 -0.25,-0.25 0,-0.141032 0.108968,-0.25 0.25,-0.25 z"
     id="path319" />
  <path
     style="color:#000000;fill:#808080;-inkscape-stroke:none"
     d="m 16.5,16.75 c -0.411252,0 -0.75,0.338748 -0.75,0.75 0,0.411252 0.338748,0.75 0.75,0.75 0.411252,0 0.75,-0.338748 0.75,-0.75 0,-0.411252 -0.338748,-0.75 -0.75,-0.75 z"
     id="path309" />
  <path
     style="color:#000000;fill:#808080;stroke-width:1.17431;-inkscape-stroke:none"
     d="m 5,15 v 1 h 1 v -1 z"
     id="path297" />
  <path
     style="color:#000000;fill:#808080;stroke-width:1.17431;-inkscape-stroke:none"
     d="m 7,15 v 1 h 1 v -1 z"
     id="path428" />
  <path
     style="color:#000000;fill:#808080;stroke-width:1.17431;-inkscape-stroke:none"
     d="m 9,15 v 1 h 1 v -1 z"
     id="path430" />
  <path
     style="color:#000000;fill:#808080;stroke-width:1.17431;-inkscape-stroke:none"
     d="m 11,15 v 1 h 1 v -1 z"
     id="path432" />
  <path
     style="color:#000000;fill:#808080;stroke-width:1.17431;-inkscape-stroke:none"
     d="m 5,17 v 1 h 1 v -1 z"
     id="path434" />
  <path
     style="color:#000000;fill:#808080;stroke-width:1.17431;-inkscape-stroke:none"
     d="m 7,17 v 1 h 1 v -1 z"
     id="path436" />
  <path
     style="color:#000000;fill:#808080;stroke-width:1.17431;-inkscape-stroke:none"
     d="m 9,17 v 1 h 1 v -1 z"
     id="path438" />
  <path
     style="color:#000000;fill:#808080;stroke-width:1.17431;-inkscape-stroke:none"
     d="m 11,17 v 1 h 1 v -1 z"
     id="path440" />
  <path
     style="color:#000000;fill:#808080;stroke-width:1.17431;-inkscape-stroke:none"
     d="m 5,19 v 1 h 1 v -1 z"
     id="path442" />
  <path
     style="color:#000000;fill:#808080;stroke-width:1.17431;-inkscape-stroke:none"
     d="m 7,19 v 1 h 1 v -1 z"
     id="path444" />
  <path
     style="color:#000000;fill:#808080;stroke-width:1.17431;-inkscape-stroke:none"
     d="m 9,19 v 1 h 1 v -1 z"
     id="path446" />
  <path
     style="color:#000000;fill:#808080;stroke-width:1.17431;-inkscape-stroke:none"
     d="m 11,19 v 1 h 1 v -1 z"
     id="path448" />
</svg>
