<?xml version="1.0" encoding="UTF-8" standalone="no"?>
<svg
   viewBox="0 1 24 24"
   height="24"
   width="24"
   version="1.1"
   id="svg4"
   sodipodi:docname="radio-filled.svg"
   inkscape:version="1.2 (1:1.2.1+202207142221+cd75a1ee6d)"
   xmlns:inkscape="http://www.inkscape.org/namespaces/inkscape"
   xmlns:sodipodi="http://sodipodi.sourceforge.net/DTD/sodipodi-0.dtd"
   xmlns="http://www.w3.org/2000/svg"
   xmlns:svg="http://www.w3.org/2000/svg">
  <defs
     id="defs8" />
  <sodipodi:namedview
     id="namedview6"
     pagecolor="#ffffff"
     bordercolor="#666666"
     borderopacity="1.0"
     inkscape:pageshadow="2"
     inkscape:pageopacity="0.0"
     inkscape:pagecheckerboard="0"
     showgrid="true"
     inkscape:snap-page="true"
     inkscape:zoom="8.481941"
     inkscape:cx="-32.834466"
     inkscape:cy="4.0085164"
     inkscape:window-width="1920"
     inkscape:window-height="1043"
     inkscape:window-x="0"
     inkscape:window-y="0"
     inkscape:window-maximized="1"
     inkscape:current-layer="svg4"
     inkscape:showpageshadow="2"
     inkscape:deskcolor="#d1d1d1">
    <inkscape:grid
       type="xygrid"
       id="grid6" />
    <inkscape:grid
       type="xygrid"
       id="grid823"
       dotted="true"
       spacingx="0.5"
       spacingy="0.5"
       empspacing="10" />
  </sodipodi:namedview>
  <path
     id="path307"
     style="color:#000000;fill:#808080"
     d="M 19.5 1.75 C 19.099036 1.75 18.768315 2.0714877 18.751953 2.46875 L 7.0214844 6.078125 A 1.5 1.25 0 0 0 6.5 6 A 1.5 1.25 0 0 0 5.0234375 7.0449219 C 4.0567741 7.1208574 3.347265 7.3207057 2.8339844 7.8339844 C 2.0881653 8.5797996 2 9.7262102 2 11.5 L 2 17.5 C 2 19.273788 2.0881665 20.420194 2.8339844 21.166016 C 3.5798028 21.911833 4.7262116 22 6.5 22 L 17.5 22 C 18.165169 22 18.741511 21.988424 19.242188 21.933594 C 19.575966 21.897044 19.876954 21.840974 20.146484 21.757812 C 20.550787 21.633072 20.886333 21.445691 21.166016 21.166016 C 21.445692 20.886333 21.63307 20.550789 21.757812 20.146484 C 21.840982 19.876956 21.897044 19.575966 21.933594 19.242188 C 21.988424 18.741511 22 18.165168 22 17.5 L 22 11.5 C 22 10.834831 21.988424 10.258484 21.933594 9.7578125 C 21.897044 9.4240297 21.840984 9.1230504 21.757812 8.8535156 C 21.63307 8.4492146 21.445692 8.1136651 21.166016 7.8339844 C 20.886333 7.5543036 20.550787 7.366935 20.146484 7.2421875 C 19.876954 7.159023 19.575966 7.1029582 19.242188 7.0664062 C 18.741511 7.0115797 18.165169 7 17.5 7 L 7.96875 7 A 1.5 1.25 0 0 0 7.6171875 6.4179688 L 18.900391 2.9453125 L 18.900391 2.9472656 C 19.037714 3.1303778 19.255819 3.25 19.5 3.25 C 19.911252 3.25 20.25 2.9112492 20.25 2.5 C 20.25 2.0887508 19.911252 1.75 19.5 1.75 z M 6 9 L 18 9 C 19.099347 9 20 9.900653 20 11 L 20 12 C 20 13.099347 19.099347 14 18 14 L 6 14 C 4.900653 14 4 13.099347 4 12 L 4 11 C 4 9.900653 4.900653 9 6 9 z M 6 10 C 5.4373537 10 5 10.437355 5 11 L 5 12 C 5 12.562645 5.4373537 13 6 13 L 15 13 L 15 11 L 14 11 L 14 10 L 13 10 L 13 11 L 12 11 L 12 10 L 11 10 L 11 11 L 10 11 L 10 10 L 9 10 L 9 11 L 8 11 L 8 10 L 7 10 L 7 11 L 6 11 L 6 10 z M 15 11 L 16 11 L 16 10 L 15 10 L 15 11 z M 16 11 L 16 13 L 18 13 C 18.562645 13 19 12.562645 19 12 L 19 11 C 19 10.437355 18.562645 10 18 10 L 17 10 L 17 11 L 16 11 z M 5 15 L 6 15 L 6 16 L 5 16 L 5 15 z M 7 15 L 8 15 L 8 16 L 7 16 L 7 15 z M 9 15 L 10 15 L 10 16 L 9 16 L 9 15 z M 11 15 L 12 15 L 12 16 L 11 16 L 11 15 z M 16.5 15 A 2.5 2.5 0 0 1 19 17.5 A 2.5 2.5 0 0 1 16.5 20 A 2.5 2.5 0 0 1 14 17.5 A 2.5 2.5 0 0 1 16.5 15 z M 16.5 16 A 1.5 1.5 0 0 0 15 17.5 A 1.5 1.5 0 0 0 16.5 19 A 1.5 1.5 0 0 0 18 17.5 A 1.5 1.5 0 0 0 16.5 16 z M 16.5 16.75 C 16.911252 16.75 17.25 17.088748 17.25 17.5 C 17.25 17.911252 16.911252 18.25 16.5 18.25 C 16.088748 18.25 15.75 17.911252 15.75 17.5 C 15.75 17.088748 16.088748 16.75 16.5 16.75 z M 5 17 L 6 17 L 6 18 L 5 18 L 5 17 z M 7 17 L 8 17 L 8 18 L 7 18 L 7 17 z M 9 17 L 10 17 L 10 18 L 9 18 L 9 17 z M 11 17 L 12 17 L 12 18 L 11 18 L 11 17 z M 5 19 L 6 19 L 6 20 L 5 20 L 5 19 z M 7 19 L 8 19 L 8 20 L 7 20 L 7 19 z M 9 19 L 10 19 L 10 20 L 9 20 L 9 19 z M 11 19 L 12 19 L 12 20 L 11 20 L 11 19 z " />
  <path
     style="color:#000000;fill:#808080;-inkscape-stroke:none"
     d="m 16.5,17.25 c 0.141032,0 0.25,0.108968 0.25,0.25 0,0.141032 -0.108968,0.25 -0.25,0.25 -0.141032,0 -0.25,-0.108968 -0.25,-0.25 0,-0.141032 0.108968,-0.25 0.25,-0.25 z"
     id="path319" />
</svg>
